<svg width="280" height="68" viewBox="0 0 280 68" fill="none" xmlns="http://www.w3.org/2000/svg">
<path d="M12.2804 57.68C12.2817 58.4786 12.5195 59.2606 12.9656 59.9258L15.1504 63.1871C15.5236 63.7447 16.0299 64.2019 16.6241 64.5182C17.2182 64.8345 17.8819 65 18.5561 65H26.4452C27.1193 65 27.783 64.8345 28.3772 64.5182C28.9714 64.2019 29.4776 63.7447 29.8509 63.1871L32.0357 59.9258C32.4816 59.2605 32.72 58.4793 32.7209 57.68L32.726 52.8115H12.274L12.2804 57.68ZM0 22.3434C0 27.9762 2.10298 33.1151 5.56875 37.0417C7.68068 39.4347 10.9841 44.434 12.2433 48.6513C12.2484 48.6843 12.2523 48.7173 12.2574 48.7503H32.7426C32.7477 48.7173 32.7516 48.6856 32.7567 48.6513C34.0159 44.434 37.3193 39.4347 39.4312 37.0417C42.897 33.1151 45 27.9762 45 22.3434C45 9.97968 34.8891 -0.0379769 22.4297 0.000108235C9.38864 0.0394629 0 10.5332 0 22.3434ZM22.5 12.1873C16.8609 12.1873 12.2727 16.7436 12.2727 22.3434C12.2727 23.4656 11.3574 24.3746 10.2273 24.3746C9.09716 24.3746 8.18182 23.4656 8.18182 22.3434C8.18182 14.5029 14.6045 8.12494 22.5 8.12494C23.6301 8.12494 24.5455 9.0339 24.5455 10.1561C24.5455 11.2784 23.6301 12.1873 22.5 12.1873Z" fill="white"/>
<path d="M76.0341 56V21.0909H90.0114C92.5795 21.0909 94.7216 21.4716 96.4375 22.233C98.1534 22.9943 99.4432 24.0511 100.307 25.4034C101.17 26.7443 101.602 28.2898 101.602 30.0398C101.602 31.4034 101.33 32.6023 100.784 33.6364C100.239 34.6591 99.4886 35.5 98.5341 36.1591C97.5909 36.8068 96.5114 37.267 95.2955 37.5398V37.8807C96.625 37.9375 97.8693 38.3125 99.0284 39.0057C100.199 39.6989 101.148 40.6705 101.875 41.9205C102.602 43.1591 102.966 44.6364 102.966 46.3523C102.966 48.2045 102.506 49.858 101.585 51.3125C100.676 52.7557 99.3295 53.8977 97.5455 54.7386C95.7614 55.5795 93.5625 56 90.9489 56H76.0341ZM83.4148 49.9659H89.4318C91.4886 49.9659 92.9886 49.5739 93.9318 48.7898C94.875 47.9943 95.3466 46.9375 95.3466 45.6193C95.3466 44.6534 95.1136 43.8011 94.6477 43.0625C94.1818 42.3239 93.517 41.7443 92.6534 41.3239C91.8011 40.9034 90.7841 40.6932 89.6023 40.6932H83.4148V49.9659ZM83.4148 35.6989H88.8864C89.8977 35.6989 90.7955 35.5227 91.5795 35.1705C92.375 34.8068 93 34.2955 93.4545 33.6364C93.9205 32.9773 94.1534 32.1875 94.1534 31.267C94.1534 30.0057 93.7045 28.9886 92.8068 28.2159C91.9205 27.4432 90.6591 27.0568 89.0227 27.0568H83.4148V35.6989ZM115.149 21.0909V56H107.768V21.0909H115.149ZM144.369 32.375C144.131 31.5455 143.795 30.8125 143.364 30.1761C142.932 29.5284 142.403 28.983 141.778 28.5398C141.165 28.0852 140.46 27.7386 139.665 27.5C138.881 27.2614 138.011 27.142 137.057 27.142C135.273 27.142 133.705 27.5852 132.352 28.4716C131.011 29.358 129.966 30.6477 129.216 32.3409C128.466 34.0227 128.091 36.0795 128.091 38.5114C128.091 40.9432 128.46 43.0114 129.199 44.7159C129.938 46.4205 130.983 47.7216 132.335 48.6193C133.688 49.5057 135.284 49.9489 137.125 49.9489C138.795 49.9489 140.222 49.6534 141.403 49.0625C142.597 48.4602 143.506 47.6136 144.131 46.5227C144.767 45.4318 145.085 44.142 145.085 42.6534L146.585 42.875H137.585V37.3182H152.193V41.7159C152.193 44.7841 151.545 47.4205 150.25 49.625C148.955 51.8182 147.17 53.5114 144.898 54.7045C142.625 55.8864 140.023 56.4773 137.091 56.4773C133.818 56.4773 130.943 55.7557 128.466 54.3125C125.989 52.858 124.057 50.7955 122.67 48.125C121.295 45.4432 120.608 42.2614 120.608 38.5795C120.608 35.75 121.017 33.2273 121.835 31.0114C122.665 28.7841 123.824 26.8977 125.312 25.3523C126.801 23.8068 128.534 22.6307 130.511 21.8239C132.489 21.017 134.631 20.6136 136.938 20.6136C138.915 20.6136 140.756 20.9034 142.46 21.483C144.165 22.0511 145.676 22.858 146.994 23.9034C148.324 24.9489 149.409 26.1932 150.25 27.6364C151.091 29.0682 151.631 30.6477 151.869 32.375H144.369ZM176.227 21.0909V56H168.847V21.0909H176.227ZM194.675 56H182.3V21.0909H194.777C198.288 21.0909 201.311 21.7898 203.845 23.1875C206.379 24.5739 208.328 26.5682 209.692 29.1705C211.067 31.7727 211.754 34.8864 211.754 38.5114C211.754 42.1477 211.067 45.2727 209.692 47.8864C208.328 50.5 206.368 52.5057 203.811 53.9034C201.266 55.3011 198.22 56 194.675 56ZM189.68 49.6761H194.368C196.55 49.6761 198.385 49.2898 199.874 48.517C201.374 47.733 202.499 46.5227 203.249 44.8864C204.01 43.2386 204.391 41.1136 204.391 38.5114C204.391 35.9318 204.01 33.8239 203.249 32.1875C202.499 30.5511 201.379 29.3466 199.891 28.5739C198.402 27.8011 196.567 27.4148 194.385 27.4148H189.68V49.6761ZM217.222 56V21.0909H240.744V27.1761H224.602V35.4943H239.534V41.5795H224.602V49.9148H240.812V56H217.222ZM252.629 56H244.72L256.771 21.0909H266.283L278.317 56H270.408L261.663 29.0682H261.391L252.629 56ZM252.135 42.2784H270.817V48.0398H252.135V42.2784Z" fill="white"/>
</svg>
